# xmcd
#
# Track frame offsets: 
#        150
#        10322
#        19919
#        30109
#        42927
#        51886
#        63718
#        77446
#        87288
#        100116
#        112823
#        122740
#        136546
#        148962
#        161239
#        174671
#        184051
#        193955
#
# Disc length: 2743 seconds
#
# Revision: 0
# Processed by: cddbd v1.5.2PL0 Copyright (c) Steve Scherf et al.
# Submitted via: ExactAudioCopy v1.0b3
#
DISCID=ee0ab512
DTITLE=Various Artist - The Cobra Records Singles Collection [CD2]
DYEAR=2012
DGENRE=R&B
TTITLE0=Duke Jenkins - Shake it
TTITLE1=Magic Sam - Look Watcha Done
TTITLE2=Harold Burrage - She Knocks Me Out
TTITLE3=Otis Rush - Three Times a Fool
TTITLE4=Betty Everett - Ain't Gonna Cry
TTITLE5=Charles Clark - Hidden Charms
TTITLE6=Buddy Guy - Sit and Cry (The Blues)
TTITLE7=Magic Sam - All My Whole Life 
TTITLE8=Harold Burrage - Betty Jean
TTITLE9=Otis Rush - It Takes Time 
TTITLE10=Jimmy Kelly and The Rock-a-Beats - Little Chickie
TTITLE11=Shakey Jake - Call Me If You Need Me 
TTITLE12=Magic Sam - Easy Baby
TTITLE13=Otis Rush - Double Trouble
TTITLE14=Buddy Guy - This is the End
TTITLE15=Betty Everett - Tell Me Darling
TTITLE16=Ike Turner's Kings of Rhythm - Tommy Hodge - (I Know) You Don
TTITLE16='t Love Me 
TTITLE17=Otis Rush - All Your Love (I Miss Your Loving)
EXTD=
EXTT0=
EXTT1=
EXTT2=
EXTT3=
EXTT4=
EXTT5=
EXTT6=
EXTT7=
EXTT8=
EXTT9=
EXTT10=
EXTT11=
EXTT12=
EXTT13=
EXTT14=
EXTT15=
EXTT16=
EXTT17=
PLAYORDER=
